<?xml version="1.0" encoding="UTF-8"?>
<svg width="301px" height="135px" viewBox="0 0 301 135" version="1.1" xmlns="http://www.w3.org/2000/svg" xmlns:xlink="http://www.w3.org/1999/xlink">
    <title>Path 3</title>
    <g id="Page-1" stroke="none" stroke-width="1" fill="none" fill-rule="evenodd" fill-opacity="0.801955857">
        <g id="Login" transform="translate(-1053.000000, -281.000000)" fill="#F8C9BA">
            <g id="Group" transform="translate(1053.000000, 277.000000)">
                <path d="M43.6992731,132.344446 C70.782179,123.571811 96.2679548,121.220281 120.156601,125.289855 C147.192803,129.895634 187.46609,134.362012 240.976463,138.68899 L240.976463,138.688989 C265.527299,140.674228 288.310377,125.794747 296.362109,102.516982 C299.454036,93.5781384 301,83.2463908 301,71.5217391 C301,42.4140695 291.471724,21.2223637 272.415173,7.94662173 L272.415174,7.9466215 C264.791878,2.63585424 254.654142,2.6865114 247.084301,8.07319711 C222.122936,25.8356588 203.605046,29.0624675 191.53063,17.7536232 C178.823483,5.85216659 143.329691,4.97343425 85.0492539,15.1174262 L85.0492538,15.1174255 C76.9783689,16.5222021 68.6840768,15.8810087 60.9249873,13.25249 C41.1803589,6.56367365 24.1425216,16.1799934 9.81147541,42.1014493 C-3.31272463,65.8400073 -3.27035546,91.1564027 9.93858291,118.050635 L9.93858333,118.050635 C16.0748776,130.544518 30.4571915,136.633791 43.6992731,132.344446 Z" id="Path-3"></path>
            </g>
        </g>
    </g>
</svg>