<?xml version="1.0" encoding="UTF-8"?>
<svg width="15px" height="17px" viewBox="0 0 15 17" version="1.1" xmlns="http://www.w3.org/2000/svg" xmlns:xlink="http://www.w3.org/1999/xlink">
    <title>trash</title>
    <defs>
        <path d="M0,2.7890625 L0,1.859375 C0,1.41777344 0.358258929,1.0625 0.803571429,1.0625 L4.55357143,1.0625 L4.86830357,0.441601563 C5.00223214,0.169335938 5.28013393,0 5.58482143,0 L9.41183036,0 C9.71651786,0 9.99441964,0.169335938 10.1316964,0.441601563 L10.4464286,1.0625 L14.1964286,1.0625 C14.6417411,1.0625 15,1.41777344 15,1.859375 L15,2.7890625 C15,3.00820313 14.8191964,3.1875 14.5982143,3.1875 L0.401785714,3.1875 C0.180803571,3.1875 0,3.00820313 0,2.7890625 Z M13.9017857,4.67167969 L13.21875,15.5058594 C13.1651786,16.3458984 12.4620536,17 11.6149554,17 L3.38504464,17 C2.53794643,17 1.83482143,16.3458984 1.78125,15.5058594 L1.09821429,4.67167969 C1.08482143,4.44257812 1.26897321,4.25 1.5,4.25 L13.5033482,4.25 C13.7310268,4.25 13.9151786,4.44257812 13.9017857,4.67167969 Z" id="path-1"></path>
    </defs>
    <g id="Page-1" stroke="none" stroke-width="1" fill="none" fill-rule="evenodd">
        <g id="Add-new-User" transform="translate(-1596.000000, -524.000000)">
            <g id="Group-9" transform="translate(121.001427, 465.000000)">
                <g id="Group-3" transform="translate(1440.998573, 59.000000)">
                    <g id="Icons/Solid/trash" transform="translate(34.000000, 0.000000)">
                        <mask id="mask-2" fill="white">
                            <use xlink:href="#path-1"></use>
                        </mask>
                        <use id="trash" fill="#939393" fill-rule="nonzero" xlink:href="#path-1"></use>
                    </g>
                </g>
            </g>
        </g>
    </g>
</svg>