<?xml version="1.0" encoding="UTF-8"?>
<svg width="17px" height="17px" viewBox="0 0 17 17" version="1.1" xmlns="http://www.w3.org/2000/svg" xmlns:xlink="http://www.w3.org/1999/xlink">
    <title>pencil-alt</title>
    <defs>
        <path d="M16.5318143,4.71586147 L15.0010794,6.24658644 C14.8450175,6.40264734 14.592662,6.40264734 14.4366001,6.24658644 L10.7508827,2.56089291 C10.5948208,2.40483202 10.5948208,2.15247822 10.7508827,1.99641733 L12.2816176,0.465692358 C12.9025447,-0.155230786 13.9119665,-0.155230786 14.5362141,0.465692358 L16.5318143,2.46127957 C17.1560619,3.08220272 17.1560619,4.09161788 16.5318143,4.71586147 Z M9.43597806,3.3113134 L0.716433902,12.030801 L0.0124950738,16.0651412 C-0.0837984451,16.6096941 0.391028217,17.0811972 0.935584669,16.9882248 L4.96995107,16.2809701 L13.6894952,7.56148251 C13.8455571,7.40542161 13.8455571,7.15306782 13.6894952,6.99700692 L10.0037778,3.3113134 C9.8443954,3.1552525 9.59203997,3.1552525 9.43597806,3.3113134 Z M4.11991173,11.2837009 C3.93728609,11.1010765 3.93728609,10.8088773 4.11991173,10.6262529 L9.23342963,5.51276818 C9.41605527,5.33014373 9.70825629,5.33014373 9.89088193,5.51276818 C10.0735076,5.69539263 10.0735076,5.98759176 9.89088193,6.17021621 L4.77736403,11.2837009 C4.59473839,11.4663254 4.30253737,11.4663254 4.11991173,11.2837009 L4.11991173,11.2837009 Z M2.92122344,14.0761949 L4.5150472,14.0761949 L4.5150472,15.2815162 L2.37334652,15.6567265 L1.34068154,14.6240682 L1.71589422,12.4823814 L2.92122344,12.4823814 L2.92122344,14.0761949 Z" id="path-1"></path>
    </defs>
    <g id="Page-1" stroke="none" stroke-width="1" fill="none" fill-rule="evenodd">
        <g id="Add-new-User" transform="translate(-1562.000000, -524.000000)">
            <g id="Group-9" transform="translate(121.001427, 465.000000)">
                <g id="Group-3" transform="translate(1440.998573, 59.000000)">
                    <g id="Icons/Solid/pencil-alt" transform="translate(-0.000000, 0.000000)">
                        <mask id="mask-2" fill="white">
                            <use xlink:href="#path-1"></use>
                        </mask>
                        <use id="pencil-alt" fill="#939393" fill-rule="nonzero" xlink:href="#path-1"></use>
                    </g>
                </g>
            </g>
        </g>
    </g>
</svg>