<?xml version="1.0" encoding="UTF-8"?>
<svg width="24px" height="15px" viewBox="0 0 24 15" version="1.1" xmlns="http://www.w3.org/2000/svg" xmlns:xlink="http://www.w3.org/1999/xlink">
    <title>shutterstock_1709856253</title>
    <g id="Page-1" stroke="none" stroke-width="1" fill="none" fill-rule="evenodd">
        <g id="01-Add-new-User" transform="translate(-1269.000000, -423.000000)" fill="#4B5353">
            <g id="shutterstock_1709856253" transform="translate(1269.000000, 423.000000)">
                <path d="M23.7582291,6.85779362 C15.9157013,-2.12215059 8.0732241,-2.45278802 0.230734283,6.8711465 C-0.0769114277,7.23663701 -0.0769114277,7.76335979 0.230734283,8.12886309 C8.0732241,17.4527848 15.9157013,17.1221474 23.7582291,8.14221597 C24.0805903,7.77316981 24.0805903,7.22682699 23.7582291,6.85779362 Z M12.010185,1.91548608 C15.0640116,1.91548608 17.5396142,4.41575016 17.5396142,7.4999984 C17.5396142,10.5842594 15.0640116,13.0845235 12.010185,13.0845235 C8.95635839,13.0845235 6.48074312,10.5842594 6.48074312,7.4999984 C6.48074312,4.41575016 8.95635839,1.91548608 12.010185,1.91548608 L12.010185,1.91548608 Z" id="Fill-2"></path>
                <path d="M12.010185,3.08432411 C12.1254271,3.08432411 12.2395927,3.08887739 12.3525806,3.09772816 C12.000801,3.52576236 11.7892495,4.07554573 11.7892495,4.67528731 C11.7892495,6.04033859 12.8849231,7.1469271 14.2365101,7.1469271 C15.0297302,7.1469271 15.7346825,6.76567916 16.1818598,6.17482672 C16.3120201,6.59315322 16.3823051,7.03827502 16.3823051,7.4999984 C16.3823051,9.93871642 14.4248486,11.9156855 12.010185,11.9156855 C9.59552139,11.9156855 7.63805226,9.93871642 7.63805226,7.4999984 C7.63805226,5.06128038 9.59552139,3.08432411 12.010185,3.08432411" id="Fill-3"></path>
            </g>
        </g>
    </g>
</svg>