<?xml version="1.0" encoding="UTF-8"?>
<svg width="24px" height="19px" viewBox="0 0 24 19" version="1.1" xmlns="http://www.w3.org/2000/svg" xmlns:xlink="http://www.w3.org/1999/xlink">
    <title>Group 6 Copy</title>
    <g id="Page-1" stroke="none" stroke-width="1" fill="none" fill-rule="evenodd">
        <g id="01-Add-new-User" transform="translate(-1297.000000, -421.000000)" fill="#4B5353">
            <g id="Group-24" transform="translate(290.000000, 183.000000)">
                <g id="Group-22" transform="translate(46.000000, 41.000000)">
                    <g id="Group-16" transform="translate(0.000000, 182.000000)">
                        <g id="Group-6-Copy" transform="translate(973.000000, 24.500000) scale(-1, 1) translate(-973.000000, -24.500000) translate(961.000000, 15.000000)">
                            <path d="M12.0019602,14.2857342 C11.0907455,14.2857342 10.2398376,14.0420866 9.50069068,13.6219981 L10.8548299,12.2642011 C11.2112146,12.3973107 11.5971566,12.4703869 12.0019602,12.4703869 C13.8071178,12.4703869 15.2717172,11.0018706 15.2717172,9.18655948 C15.2717172,8.78349917 15.1989082,8.39804672 15.0661537,8.04165084 L16.4205819,6.68360028 C16.8393693,7.42287628 17.0822948,8.27316143 17.0822948,9.18655948 C17.0822948,12.0043586 14.8069319,14.2857342 12.0019602,14.2857342 Z M23.7406518,8.49833175 C22.8795904,7.53015373 21.1177207,5.73197944 18.8138485,4.28375207 L21.7023608,1.38755094 C22.0192516,1.07028361 22.0192516,0.555380867 21.7023608,0.238113535 C21.3858313,-0.0793711783 20.8727355,-0.0793711783 20.556206,0.238113535 L3.2279866,17.612748 C2.91131257,17.9297617 2.91131257,18.4449543 3.2279866,18.761968 C3.38632362,18.920656 3.59372993,19 3.80113625,19 C4.0085787,19 4.21598501,18.920656 4.37432203,18.761968 L7.72509028,15.4023109 C9.05798298,15.9425023 10.4973973,16.2907826 12.0019602,16.2907826 C17.4931689,16.2907826 22.1460802,11.662962 23.7406518,9.8801855 C24.0864494,9.48462483 24.0864494,8.88849412 23.7406518,8.49833175 L23.7406518,8.49833175 Z" id="Fill-4"></path>
                            <path d="M7.5811344,11.7063295 C7.15414478,10.9639739 6.91638632,10.1023125 6.91638632,9.18655948 C6.91638632,6.3740862 9.19167695,4.09274677 12.0019602,4.09274677 C12.9153791,4.09274677 13.7692499,4.33121355 14.5097338,4.75923642 L16.2877552,2.97645994 C14.9528751,2.42913123 13.5098475,2.08222764 12.0019602,2.08222764 C6.50565678,2.08222764 1.8523841,6.71004829 0.263413246,8.49833175 C-0.0878044154,8.88849412 -0.0878044154,9.48462483 0.263413246,9.8801855 C1.12277638,10.8447043 2.89006607,12.6492188 5.19780459,14.0960695 L7.5811344,11.7063295" id="Fill-5"></path>
                            <path d="M8.72689168,9.18655948 C8.72689168,9.59838747 8.80255524,9.98851362 8.93765841,10.3461776 L13.1532098,6.11938832 C12.7964999,5.98392383 12.4073059,5.90805792 12.0019602,5.90805792 C10.1915271,5.90805792 8.72689168,7.37657416 8.72689168,9.18655948" id="Fill-6"></path>
                        </g>
                    </g>
                </g>
            </g>
        </g>
    </g>
</svg>