<?xml version="1.0" encoding="UTF-8"?>
<svg width="24px" height="23px" viewBox="0 0 24 23" version="1.1" xmlns="http://www.w3.org/2000/svg" xmlns:xlink="http://www.w3.org/1999/xlink">
    <title>Fill 4</title>
    <g id="Page-1" stroke="none" stroke-width="1" fill="none" fill-rule="evenodd">
        <g id="home-page" transform="translate(-30.000000, -237.000000)" fill="#FFFFFF">
            <g id="shutterstock_451922449" transform="translate(30.000000, 237.000000)">
                <path d="M23.6989192,10.7687853 L12.8531504,0.339636072 C12.6250618,0.120554434 12.3225349,0 12.0000185,0 C11.6780988,0 11.3749752,0.120554434 11.1470358,0.339636072 L0.301714506,10.7687853 C-0.0618249841,11.1180955 -0.0194592823,11.4181421 0.0381222702,11.5605749 C0.0960021726,11.703603 0.268000955,11.9514094 0.772212476,11.9514094 L1.99335908,11.9514094 L1.99335908,21.2208547 C1.99335908,22.1849925 2.82679984,23 3.77048093,23 L9.26802744,23 L9.26802744,16.7174768 L14.5877573,16.7174768 L14.5877573,23 L20.2291086,23 C21.1763698,23 21.9702792,22.1687697 21.9702792,21.2208547 L21.9702792,11.9514094 L23.2278245,11.9514094 C23.7326328,11.9514094 23.904184,11.703603 23.9619147,11.5605749 C24.0191979,11.4181421 24.0621603,11.1180955 23.6989192,10.7687853" id="Fill-4"></path>
            </g>
        </g>
    </g>
</svg>