<?xml version="1.0" encoding="UTF-8"?>
<svg width="24px" height="24px" viewBox="0 0 24 24" version="1.1" xmlns="http://www.w3.org/2000/svg" xmlns:xlink="http://www.w3.org/1999/xlink">
    <title>Group 7</title>
    <g id="Page-1" stroke="none" stroke-width="1" fill="none" fill-rule="evenodd">
        <g id="home-page" transform="translate(-30.000000, -152.000000)" fill="#FFFFFF">
            <g id="Group-7" transform="translate(30.000000, 152.000000)">
                <path d="M12.0056032,20.4225185 C15.3901708,20.4225185 18.774591,20.419588 22.1590112,20.4254489 C22.9825436,20.4269141 23.654559,20.9206926 23.9030055,21.6679539 C24.1437803,22.3932369 23.9359055,23.1756634 23.2836596,23.6035071 C22.9548073,23.8203594 22.5178128,23.9815334 22.1290618,23.9815334 C15.3768928,24.0049769 8.62457627,24.0020465 1.87225971,23.9947204 C0.806624719,23.9932551 -0.00156419191,23.1903156 0.00678019444,22.192502 C0.0152546354,21.1990841 0.829344889,20.4269141 1.90220903,20.4254489 C5.26995789,20.419588 8.63785429,20.4225185 12.0056032,20.4225185" id="Fill-29"></path>
                <path d="M11.9966036,3.5714838 C8.69568745,3.5714838 5.3947713,3.58261946 2.09400267,3.55771075 C1.66438491,3.55448727 1.19257255,3.44606113 0.817247136,3.24488667 C0.174590894,2.90012084 -0.104985226,2.13278608 0.039892742,1.4505805 C0.197901198,0.705956623 0.781101411,0.150492413 1.53411277,0.0386962666 C1.71454633,0.0118827741 1.89911082,0.00177276866 2.08175739,0.00177276866 C8.70026099,0 15.3186171,-0.00086462405 21.9371207,0.00118668139 C23.0105749,0.00162624685 23.689967,0.475477804 23.9345777,1.37482872 C24.2026462,2.36062751 23.5195658,3.3968298 22.4976007,3.53954205 C22.2677434,3.57163033 22.0321323,3.57001859 21.7991768,3.57016511 C18.5316032,3.57206989 15.2640296,3.5714838 11.9966036,3.5714838" id="Fill-30"></path>
                <path d="M9.12501015,13.7938714 C6.70929543,13.7924062 4.29343318,13.804128 1.87786599,13.7880106 C0.491050407,13.7792193 -0.390167622,12.4753216 0.171787756,11.2874692 C0.540621688,10.5079732 1.20570303,10.2175669 2.04384126,10.2193252 C4.72600161,10.224893 7.4083095,10.2213765 10.0906174,10.221523 C12.1730538,10.221523 14.2556377,10.2122921 16.338074,10.2251861 C17.6657287,10.2332448 18.541488,11.3050518 18.2173567,12.4899738 C18.0040232,13.2707885 17.3147463,13.7850801 16.4220207,13.7894758 C14.6061774,13.7997323 12.7901867,13.7938714 10.9741959,13.7938714 C10.3578007,13.7938714 9.74140541,13.7938714 9.12501015,13.7938714" id="Fill-31"></path>
            </g>
        </g>
    </g>
</svg>