<?xml version="1.0" encoding="UTF-8"?>
<svg width="20px" height="16px" viewBox="0 0 20 16" version="1.1" xmlns="http://www.w3.org/2000/svg" xmlns:xlink="http://www.w3.org/1999/xlink">
    <title>sign-out-alt</title>
    <defs>
        <path d="M19.4140625,8.16489331 L12.8515625,14.7273933 C12.265625,15.3133308 11.25,14.9031746 11.25,14.0633308 L11.25,10.3133308 L5.9375,10.3133308 C5.41796875,10.3133308 5,9.89536206 5,9.37583081 L5,5.62583081 C5,5.10629956 5.41796875,4.68833081 5.9375,4.68833081 L11.25,4.68833081 L11.25,0.938330807 C11.25,0.102393307 12.2617187,-0.311669193 12.8515625,0.274268307 L19.4140625,6.83676831 C19.7773438,7.20395581 19.7773438,7.79770581 19.4140625,8.16489331 Z M7.5,14.5320808 L7.5,12.9695808 C7.5,12.7117683 7.2890625,12.5008308 7.03125,12.5008308 L3.75,12.5008308 C3.05859375,12.5008308 2.5,11.9422371 2.5,11.2508308 L2.5,3.75083081 C2.5,3.05942456 3.05859375,2.50083081 3.75,2.50083081 L7.03125,2.50083081 C7.2890625,2.50083081 7.5,2.28989331 7.5,2.03208081 L7.5,0.469580807 C7.5,0.211768307 7.2890625,0.000830807003 7.03125,0.000830807003 L3.75,0.000830807003 C1.6796875,0.000830807003 0,1.68051831 0,3.75083081 L0,11.2508308 C0,13.3211433 1.6796875,15.0008308 3.75,15.0008308 L7.03125,15.0008308 C7.2890625,15.0008308 7.5,14.7898933 7.5,14.5320808 Z" id="path-1"></path>
    </defs>
    <g id="Page-1" stroke="none" stroke-width="1" fill="none" fill-rule="evenodd">
        <g id="01-home-page" transform="translate(-1591.000000, -121.000000)">
            <g id="Group-9" transform="translate(1377.000000, 96.000000)">
                <g id="Group-6" transform="translate(21.000000, 21.000000)">
                    <g id="Icons/Solid/sign-out-alt" transform="translate(193.156738, 4.498754)">
                        <mask id="mask-2" fill="white">
                            <use xlink:href="#path-1"></use>
                        </mask>
                        <use id="sign-out-alt" fill="#E94E1B" fill-rule="nonzero" xlink:href="#path-1"></use>
                    </g>
                </g>
            </g>
        </g>
    </g>
</svg>